{
  "source": "C:\\Users\\Peter\\Desktop\\stuff\\MIUN\\quantitative_research\\video_compression\\videos\\BVI-HD\\BVI-HD_CDVL_videos\\ORIG\\PaintingTilting_1920x1080_60fps.mp4",
  "output": "C:\\Users\\Peter\\Desktop\\stuff\\MIUN\\quantitative_research\\video_compression\\compressed_videos\\BVI-HD\\av1\\1.5\\PaintingTilting_1920x1080_60fps_av1.mkv",
  "codec": "av1",
  "ok": "Input #0, mov,mp4,m4a,3gp,3g2,mj2, from 'C:\\Users\\Peter\\Desktop\\stuff\\MIUN\\quantitative_research\\video_compression\\videos\\BVI-HD\\BVI-HD_CDVL_videos\\ORIG\\PaintingTilting_1920x1080_60fps.mp4':\n  Metadata:\n    major_brand     : isom\n    minor_version   : 512\n    compatible_brands: isomiso2avc1mp41\n    encoder         : Lavf54.28.101\n  Duration: 00:00:05.00, start: 0.000000, bitrate: 667707 kb/s\n  Stream #0:0[0x1](und): Video: h264 (High 4:4:4 Predictive) (avc1 / 0x31637661), yuv420p(progressive), 1920x1080, 667702 kb/s, 60 fps, 60 tbr, 60 tbn (default)\n    Metadata:\n      handler_name    : VideoHandler\n      vendor_id       : [0][0][0][0]\n[out#0/matroska @ 000002b38d669000] Codec AVOption b:a (set bitrate (in bits/s)) has not been used for any stream. The most likely reason is either wrong type (e.g. a video option with no video streams) or that it is a private option of some decoder which was not actually used for any stream.\nStream mapping:\n  Stream #0:0 -> #0:0 (h264 (native) -> av1 (libsvtav1))\nPress [q] to stop, [?] for help\nSvt[info]: -------------------------------------------\nSvt[info]: SVT [version]:\tSVT-AV1 Encoder Lib v3.1.0-19-g6ecfe8ec\nSvt[info]: SVT [build]  :\tGCC 15.2.0\t 64 bit\nSvt[info]: LIB Build date: Aug 17 2025 11:37:13\nSvt[info]: -------------------------------------------\nSvt[info]: Level of Parallelism: 5\nSvt[info]: Number of PPCS 93\nSvt[info]: [asm level on system : up to avx2]\nSvt[info]: [asm level selected : up to avx2]\nSvt[info]: -------------------------------------------\nSvt[info]: SVT [config]: main profile\ttier (auto)\tlevel (auto)\nSvt[info]: SVT [config]: width / height / fps numerator / fps denominator \t\t: 1920 / 1080 / 60 / 1\nSvt[info]: SVT [config]: bit-depth / color format \t\t\t\t\t: 8 / YUV420\nSvt[info]: SVT [config]: preset / tune / pred struct \t\t\t\t\t: 4 / PSNR / random access\nSvt[info]: SVT [config]: gop size / mini-gop size / key-frame type \t\t\t: 321 / 16 / key frame\nSvt[info]: SVT [config]: BRC mode / target bitrate (kbps)\t\t\t\t: VBR / 1500 \nSvt[info]: SVT [config]: AQ mode / Variance Boost \t\t\t\t\t: 2 / 0\nSvt[info]: SVT [config]: sharpness / luminance-based QP bias \t\t\t\t: 0 / 0\nSvt[info]: SVT [config]: QP scale compress strength \t\t\t\t\t: 0\nSvt[info]: -------------------------------------------\nOutput #0, matroska, to 'C:\\Users\\Peter\\Desktop\\stuff\\MIUN\\quantitative_research\\video_compression\\compressed_videos\\BVI-HD\\av1\\1.5\\PaintingTilting_1920x1080_60fps_av1.mkv':\n  Metadata:\n    major_brand     : isom\n    minor_version   : 512\n    compatible_brands: isomiso2avc1mp41\n    encoder         : Lavf62.3.100\n  Stream #0:0(und): Video: av1 (AV01 / 0x31305641), yuv420p(tv, progressive), 1920x1080, q=2-31, 1500 kb/s, 60 fps, 1k tbn (default)\n    Metadata:\n      encoder         : Lavc62.11.100 libsvtav1\n      handler_name    : VideoHandler\n      vendor_id       : [0][0][0][0]\n    Side data:\n      cpb: bitrate max/min/avg: 0/0/1500000 buffer size: 1500000 vbv_delay: N/A\nframe=    0 fps=0.0 q=0.0 size=       0KiB time=N/A bitrate=N/A speed=N/A elapsed=0:00:01.62    \nframe=    0 fps=0.0 q=0.0 size=       0KiB time=N/A bitrate=N/A speed=N/A elapsed=0:00:02.46    \nframe=    0 fps=0.0 q=0.0 size=       0KiB time=N/A bitrate=N/A speed=N/A elapsed=0:00:02.99    \nframe=    0 fps=0.0 q=0.0 size=       0KiB time=N/A bitrate=N/A speed=N/A elapsed=0:00:03.60    \nframe=    0 fps=0.0 q=0.0 size=       0KiB time=N/A bitrate=N/A speed=N/A elapsed=0:00:04.20    \nframe=    0 fps=0.0 q=0.0 size=       0KiB time=N/A bitrate=N/A speed=N/A elapsed=0:00:04.79    \nframe=    1 fps=0.2 q=30.0 size=       1KiB time=00:00:00.00 bitrate=N/A speed=   0x elapsed=0:00:05.34    \nframe=    2 fps=0.3 q=58.0 size=       1KiB time=00:00:00.00 bitrate=N/A speed=   0x elapsed=0:00:05.90    \nframe=    9 fps=1.4 q=50.0 size=       1KiB time=00:00:00.13 bitrate=  42.7kbits/s speed=0.0207x elapsed=0:00:06.45    \nframe=   14 fps=2.0 q=55.0 size=       1KiB time=00:00:00.21 bitrate=  26.3kbits/s speed=0.031x elapsed=0:00:06.99    \nframe=   22 fps=2.9 q=54.0 size=       1KiB time=00:00:00.35 bitrate=  16.3kbits/s speed=0.0464x elapsed=0:00:07.54    \nframe=   29 fps=3.6 q=50.0 size=       1KiB time=00:00:00.46 bitrate=  12.2kbits/s speed=0.0576x elapsed=0:00:08.09    \nframe=   37 fps=4.3 q=50.0 size=       1KiB time=00:00:00.56 bitrate=  10.1kbits/s speed=0.0652x elapsed=0:00:08.69    \nframe=   46 fps=4.9 q=55.0 size=       1KiB time=00:00:00.75 bitrate=   7.6kbits/s speed=0.0806x elapsed=0:00:09.30    \nframe=   54 fps=5.5 q=54.0 size=       1KiB time=00:00:00.88 bitrate=   6.4kbits/s speed=0.0895x elapsed=0:00:09.87    \nframe=   62 fps=5.9 q=54.0 size=       1KiB time=00:00:01.01 bitrate=   5.6kbits/s speed=0.0974x elapsed=0:00:10.43    \nframe=   74 fps=6.7 q=54.0 size=       1KiB time=00:00:01.20 bitrate=   4.7kbits/s speed=0.109x elapsed=0:00:11.04    \nframe=   78 fps=6.7 q=54.0 size=       1KiB time=00:00:01.28 bitrate=   4.4kbits/s speed=0.11x elapsed=0:00:11.65    \nframe=   86 fps=7.1 q=54.0 size=       1KiB time=00:00:01.41 bitrate=   4.0kbits/s speed=0.116x elapsed=0:00:12.17    \nframe=   94 fps=7.4 q=54.0 size=       1KiB time=00:00:01.53 bitrate=   3.7kbits/s speed=0.121x elapsed=0:00:12.72    \nframe=  102 fps=7.6 q=54.0 size=       1KiB time=00:00:01.68 bitrate=   3.4kbits/s speed=0.126x elapsed=0:00:13.33    \nframe=  109 fps=7.8 q=50.0 size=       1KiB time=00:00:01.80 bitrate=   3.2kbits/s speed=0.129x elapsed=0:00:13.91    \nframe=  117 fps=8.1 q=50.0 size=       1KiB time=00:00:01.91 bitrate=   3.0kbits/s speed=0.132x elapsed=0:00:14.51    \nframe=  124 fps=8.2 q=54.0 size=       1KiB time=00:00:02.03 bitrate=   2.8kbits/s speed=0.135x elapsed=0:00:15.09    \nframe=  129 fps=8.2 q=35.0 size=       1KiB time=00:00:02.13 bitrate=   2.7kbits/s speed=0.136x elapsed=0:00:15.68    \nframe=  136 fps=8.4 q=53.0 size=       1KiB time=00:00:02.25 bitrate=   2.5kbits/s speed=0.139x elapsed=0:00:16.24    \nframe=  144 fps=8.6 q=54.0 size=       1KiB time=00:00:02.38 bitrate=   2.4kbits/s speed=0.142x elapsed=0:00:16.79    \nframe=  151 fps=8.7 q=50.0 size=       1KiB time=00:00:02.50 bitrate=   2.3kbits/s speed=0.144x elapsed=0:00:17.33    \nframe=  157 fps=8.8 q=47.0 size=       1KiB time=00:00:02.60 bitrate=   2.2kbits/s speed=0.145x elapsed=0:00:17.89    \nframe=  161 fps=8.7 q=33.0 size=       1KiB time=00:00:02.65 bitrate=   2.1kbits/s speed=0.144x elapsed=0:00:18.44    \nframe=  167 fps=8.8 q=43.0 size=       1KiB time=00:00:02.76 bitrate=   2.1kbits/s speed=0.145x elapsed=0:00:19.03    \nframe=  174 fps=8.9 q=42.0 size=       1KiB time=00:00:02.86 bitrate=   2.0kbits/s speed=0.146x elapsed=0:00:19.62    \nframe=  179 fps=8.9 q=39.0 size=       1KiB time=00:00:02.96 bitrate=   1.9kbits/s speed=0.147x elapsed=0:00:20.15    \nframe=  185 fps=8.9 q=36.0 size=       1KiB time=00:00:03.06 bitrate=   1.9kbits/s speed=0.148x elapsed=0:00:20.69    \nframe=  193 fps=9.1 q=29.0 size=       1KiB time=00:00:03.20 bitrate=   1.8kbits/s speed=0.151x elapsed=0:00:21.24    \nframe=  201 fps=9.2 q=35.0 size=       1KiB time=00:00:03.33 bitrate=   1.7kbits/s speed=0.153x elapsed=0:00:21.76    \nframe=  207 fps=9.3 q=36.0 size=       1KiB time=00:00:03.43 bitrate=   1.7kbits/s speed=0.153x elapsed=0:00:22.37    \nframe=  213 fps=9.3 q=39.0 size=       1KiB time=00:00:03.53 bitrate=   1.6kbits/s speed=0.154x elapsed=0:00:22.95    \nframe=  221 fps=9.4 q=40.0 size=       1KiB time=00:00:03.66 bitrate=   1.6kbits/s speed=0.156x elapsed=0:00:23.48    \nframe=  229 fps=9.5 q=38.0 size=       1KiB time=00:00:03.76 bitrate=   1.5kbits/s speed=0.157x elapsed=0:00:24.02    \nframe=  233 fps=9.5 q=35.0 size=       1KiB time=00:00:03.86 bitrate=   1.5kbits/s speed=0.157x elapsed=0:00:24.57    \nframe=  237 fps=9.4 q=35.0 size=       1KiB time=00:00:03.93 bitrate=   1.4kbits/s speed=0.156x elapsed=0:00:25.19    \nframe=  245 fps=9.5 q=38.0 size=       1KiB time=00:00:04.03 bitrate=   1.4kbits/s speed=0.156x elapsed=0:00:25.80    \nframe=  249 fps=9.4 q=35.0 size=       1KiB time=00:00:04.13 bitrate=   1.4kbits/s speed=0.157x elapsed=0:00:26.38    \nframe=  257 fps=9.5 q=26.0 size=       1KiB time=00:00:04.23 bitrate=   1.3kbits/s speed=0.157x elapsed=0:00:27.01    \nframe=  263 fps=9.5 q=41.0 size=       1KiB time=00:00:04.33 bitrate=   1.3kbits/s speed=0.157x elapsed=0:00:27.63    \nframe=  267 fps=9.5 q=40.0 size=       1KiB time=00:00:04.40 bitrate=   1.3kbits/s speed=0.156x elapsed=0:00:28.19    \nframe=  273 fps=9.5 q=27.0 size=       1KiB time=00:00:04.53 bitrate=   1.3kbits/s speed=0.157x elapsed=0:00:28.81    \nframe=  281 fps=9.6 q=36.0 size=       1KiB time=00:00:04.66 bitrate=   1.2kbits/s speed=0.159x elapsed=0:00:29.39    \n[out#0/matroska @ 000002b38d669000] video:659KiB audio:0KiB subtitle:0KiB other streams:0KiB global headers:0KiB muxing overhead: 0.308595%\nframe=  300 fps= 10 q=45.0 Lsize=     661KiB time=00:00:04.98 bitrate=1085.9kbits/s speed=0.168x elapsed=0:00:29.75    \n",
  "seconds": 30.45441508293152,
  "probe_out": {}
}